Dude, Where's the Party 2003 DVDRip Xvid fasamoo LKRG

RIPPER                           : fasamoo
Format                           : AVI
Format/Info                      : Audio Video Interleave
File size                        : 725 MiB
Duration                         : 1h 48mn
Overall bit rate                 : 934 Kbps
Writing application              : VirtualDubMod 1.5.4.1 (build 2178/release)
Writing library                  : VirtualDubMod build 2178/release
Language                         : English
Genre                            : Comedy      

Video
ID                               : 0
Format                           : MPEG-4 Visual
Format profile                   : Advanced Simple@L5
Format settings, BVOP            : Yes
Format settings, QPel            : No
Format settings, GMC             : No warppoints
Format settings, Matrix          : Custom
Codec ID                         : XVID
Codec ID/Hint                    : XviD
Duration                         : 1h 48mn
Bit rate                         : 808 Kbps
Width                            : 512 pixels
Height                           : 384 pixels
Display aspect ratio             : 4:3
Frame rate                       : 23.976 fps
Color space                      : YUV
Chroma subsampling               : 4:2:0
Bit depth                        : 8 bits
Scan type                        : Progressive
Bits/(Pixel*Frame)               : 0.171
Stream size                      : 627 MiB (86%)
Writing library                  : XviD 1.2.1 (UTC 2008-12-04)

Audio
ID                               : 1
Format                           : MPEG Audio
Format version                   : Version 1
Format profile                   : Layer 3
Mode                             : Joint stereo
Mode extension                   : MS Stereo
Codec ID                         : 55
Codec ID/Hint                    : MP3
Duration                         : 1h 48mn
Bit rate mode                    : Variable
Bit rate                         : 114 Kbps
Nominal bit rate                 : 128 Kbps
Channel(s)                       : 2 channels
Sampling rate                    : 48.0 KHz
Stream size                      : 88.1 MiB (12%)
Alignment                        : Aligned on interleaves
Interleave, duration             : 24 ms (0.58 video frame)
Interleave, preload duration     : 229 ms
Writing library                  : LAME3.98r
Encoding settings                : -m j -V 4 -q 2 -lowpass 17 --abr 128

                                    PLOT

Harish Kumar Patel lives with his mom and dad in Bhimnagar, Gujerat, India, where he is studying Electronic Engineering. His dad, Satish Kumar, wants him to re-locate to the U.S., live with the Bakshis, study, and marry the girl of his choice. Harish must first go through the blessings of an Astrologer, Bholey Shankar Maharaj, who blesses him, informs him that he will meet a girl whose name will start with "P", who he will marry. An overly excited Harish travels all the way to Houston, Texas, U.S. where he is met fondly by the Bakshi family, consisting of Mrs. and Dr. Bakshi, Mohan, and Deepu. In keeping with the fear and paranoia after the September 11 attacks, Mrs. Bakshi has made it a practice to place American flags in the front pockets of her sons, and she does it now for Harish as well. Mohan is around Harish's age and shows him around the campus. Harish meets with a beautiful Malyalee girl, Priya, and falls in love with her. But things do not go as planned when Harish finds out that Mohan actually is a snob, who hates F.O.Bs. (Fresh off the Boat) Indians like him; the girl Priya is actually in love with another young man by the name of Raju, and her name's not Priya - it's Supriya; and due to Harish's accent, oily hair, & c. he is not being invited to the party where everybody else is invited. Looks like Harish is headed for more pitfalls than he had bargained for, and it also looks like the Maharaj may have been wrong after all. 


                                 IMBD
                     
                http://www.imdb.com/title/tt0306228/
 
http://leetleech.org/images/64725616001004139869.png 
http://leetleech.org/images/76327994493722947142.png 
http://leetleech.org/images/96391125177948160539.png 
http://leetleech.org/images/75666327435670332345.png 
http://leetleech.org/images/47308879371549120881.png 
http://leetleech.org/images/57568163331861287167.png